<?xml version="1.0" encoding="UTF-8" standalone="no"?>
<!-- Created with Inkscape (http://www.inkscape.org/) -->
<svg
   xmlns:dc="http://purl.org/dc/elements/1.1/"
   xmlns:cc="http://web.resource.org/cc/"
   xmlns:rdf="http://www.w3.org/1999/02/22-rdf-syntax-ns#"
   xmlns:svg="http://www.w3.org/2000/svg"
   xmlns="http://www.w3.org/2000/svg"
   xmlns:sodipodi="http://sodipodi.sourceforge.net/DTD/sodipodi-0.dtd"
   xmlns:inkscape="http://www.inkscape.org/namespaces/inkscape"
   width="300"
   height="300"
   id="svg2238"
   sodipodi:version="0.32"
   inkscape:version="0.45.1"
   sodipodi:docbase="C:\Documents and Settings\dangan\Desktop"
   sodipodi:docname="vlcsnap-2847973.svg"
   inkscape:output_extension="org.inkscape.output.svg.inkscape"
   version="1.0">
  <defs
     id="defs2240" />
  <sodipodi:namedview
     id="base"
     pagecolor="#ffffff"
     bordercolor="#666666"
     borderopacity="1.0"
     gridtolerance="10000"
     guidetolerance="10"
     objecttolerance="10"
     inkscape:pageopacity="0.0"
     inkscape:pageshadow="2"
     inkscape:zoom="0.73358774"
     inkscape:cx="372.04724"
     inkscape:cy="526.18109"
     inkscape:document-units="px"
     inkscape:current-layer="layer1"
     inkscape:window-width="1280"
     inkscape:window-height="969"
     inkscape:window-x="-4"
     inkscape:window-y="-4"
     showgrid="true"
     width="300px"
     height="300px" />
  <metadata
     id="metadata2243">
    <rdf:RDF>
      <cc:Work
         rdf:about="">
        <dc:format>image/svg+xml</dc:format>
        <dc:type
           rdf:resource="http://purl.org/dc/dcmitype/StillImage" />
      </cc:Work>
    </rdf:RDF>
  </metadata>
  <g
     inkscape:label="Layer 1"
     inkscape:groupmode="layer"
     id="layer1">
    <path
       style="fill:#e63228;fill-opacity:1"
       d="M 67.682075,4.0186285e-011 C 67.066381,4.0186285e-011 65.838746,0.73594287 64.939421,1.6287 C 63.127019,3.4278429 63.268062,5.1121179 65.723033,10.5015 C 66.502595,12.212861 67.743929,15.013265 68.490181,16.724615 C 69.236441,18.435975 70.570589,21.411397 71.428743,23.336679 C 72.286897,25.26195 73.267833,27.537279 73.632667,28.392954 C 73.997498,29.24864 75.408868,32.39909 76.767134,35.393958 C 78.1254,38.388836 80.127526,42.939494 81.199464,45.506519 C 82.271395,48.073554 83.8864,51.846847 84.799204,53.893137 C 86.03162,56.655987 86.782836,57.499597 87.688791,57.126247 C 88.359787,56.849712 89.477816,56.454601 90.186565,56.251126 C 91.326033,55.924008 91.344448,55.650504 90.382474,53.820215 C 89.78411,52.681747 89.297798,51.204558 89.280509,50.562804 C 89.263233,49.921051 88.570508,47.995769 87.737766,46.284408 C 86.905036,44.573058 86.209643,42.583629 86.195022,41.860168 C 86.180401,41.136697 85.8337,40.353986 85.435891,40.109915 C 85.038057,39.865833 84.465965,38.540047 84.162516,37.168522 C 83.859058,35.796997 83.309144,34.129351 82.938116,33.473551 C 81.749535,31.372683 74.286232,11.398961 73.412274,7.9733573 C 72.94838,6.1550465 72.276886,4.6673251 71.918502,4.6673251 C 71.560133,4.6673251 71.281809,4.1846143 71.281818,3.5734179 C 71.281818,2.1406179 69.125445,-1.0714246e-005 67.682075,4.0186285e-011 z M 189.41203,18.815197 C 187.86574,18.989604 186.0673,20.9628 179.0291,29.195154 C 176.87417,31.715733 173.83663,35.196986 172.2949,36.925426 C 170.75317,38.653865 167.4426,42.511651 164.92401,45.506519 C 162.40541,48.501397 158.50478,53.052054 156.25524,55.61909 C 149.41381,63.42614 145.49485,67.960255 141.90527,72.197851 C 139.59959,74.919773 137.88062,76.233151 136.66484,76.233151 C 132.48291,76.233151 130.65025,82.726341 134.14257,85.154573 C 135.10043,85.820579 136.40159,86.345718 137.03215,86.345718 C 138.92118,86.345718 141.78795,83.118601 141.80732,80.973419 C 141.8204,79.523894 143.79223,76.912137 148.93334,71.565815 C 152.84179,67.50134 160.6732,59.322194 166.34431,53.382654 C 172.01542,47.443115 180.1905,38.924165 184.48994,34.445904 C 194.64962,23.863661 194.7661,23.710072 193.47704,21.319018 C 192.91513,20.276765 191.5594,19.203311 190.48951,18.93674 C 190.09921,18.839497 189.76886,18.774943 189.41203,18.815197 z M 130.83668,52.41029 C 122.31798,52.380965 113.14847,52.968322 107.71999,54.306397 C 95.809509,57.242251 93.035573,58.337262 93.663865,59.800244 C 93.966522,60.504976 94.716943,62.464512 95.329052,64.175872 C 97.157845,69.28889 98.262364,71.565815 98.928795,71.565815 C 100.05174,71.565815 103.41011,75.644005 103.4101,77.01104 C 103.4101,77.741776 102.53244,79.282244 101.47555,80.414305 C 99.106977,82.951351 95.764976,83.108798 93.272061,80.803255 C 91.778272,79.421755 91.547083,78.583073 91.900728,75.965755 C 92.309878,72.937576 91.66012,70.899355 87.566347,62.47423 L 86.733755,60.772597 L 81.150485,63.543826 C 64.005387,72.086573 53.079398,82.818537 49.340551,94.732326 C 48.769244,96.552769 48.443176,98.192826 48.630398,98.378686 C 48.81763,98.564547 55.215344,98.949747 62.85794,99.253808 C 74.633977,99.722344 76.97989,99.633683 78.138463,98.646083 C 80.472219,96.656719 82.272174,96.416601 85.044083,97.72234 C 87.598306,98.925533 88.196165,100.18929 87.737766,103.45927 C 87.236206,107.03718 81.382759,108.72183 78.701686,106.06034 C 77.55452,104.92156 75.878208,104.84357 64.00888,105.30676 C 56.637119,105.59445 50.462712,105.96736 50.29558,106.13327 C 49.596119,106.82762 52.592165,111.1865 55.658455,113.93647 C 61.369105,119.058 70.512031,122.39689 82.448354,123.7087 C 97.590996,125.37289 119.25992,121.53752 136.02814,114.25249 C 146.88587,109.53529 160.30966,100.15287 164.60566,94.270454 C 165.63982,92.854422 166.8796,91.261765 167.37281,90.721336 C 170.8991,86.857293 172.99671,77.453015 171.60923,71.711669 C 170.77973,68.279187 166.82975,62.231144 165.41376,62.231144 C 164.24336,62.231144 154.25839,72.816537 153.83093,74.507208 C 153.06712,77.528219 154.78068,78.566819 160.46719,78.566819 C 166.31655,78.566819 166.14226,79.112487 159.43869,81.678376 C 151.07412,84.880051 149.74297,87.357683 152.80244,94.051679 C 153.66261,95.933686 154.2603,97.587822 154.12479,97.72234 C 153.98927,97.856869 152.15536,97.448976 150.05978,96.822908 C 145.46422,95.449958 143.28394,95.391361 140.65638,96.579811 C 138.49072,97.559344 134.75477,104.22652 134.75477,107.08132 C 134.75477,108.04167 134.37845,109.02853 133.94665,109.29345 C 133.04528,109.84645 131.6203,106.55765 131.62029,103.94545 C 131.62029,102.975 130.40983,100.80795 128.9511,99.132265 C 126.38407,96.183447 126.13866,96.069329 121.31084,96.069329 C 118.56741,96.069329 114.92412,96.366297 113.20531,96.725676 L 110.07084,97.382022 L 114.57663,92.714676 C 118.64754,88.477947 119.08245,87.704461 119.08243,84.619769 C 119.08243,80.975241 117.49068,78.21598 113.20531,74.409976 L 110.85446,72.319394 L 113.98893,72.927119 C 124.81653,75.011026 129.7135,71.795744 131.25298,61.64773 C 131.52882,59.829408 131.97162,58.341119 132.25698,58.341697 C 132.54234,58.342265 133.54409,60.074037 134.4854,62.182522 C 136.72168,67.191644 138.44737,68.134051 141.46448,65.974737 C 143.83927,64.27513 150.51681,56.883397 151.01481,55.400304 C 151.64595,53.520729 141.78929,52.447994 130.83668,52.41029 z M 177.65778,95.777622 C 177.37268,95.810108 177.08946,96.588404 176.84968,98.208522 C 176.24256,102.3105 171.47211,125.52544 170.97255,126.79596 C 170.72021,127.43772 170.0809,130.41315 169.55224,133.40802 C 169.02359,136.40289 168.19431,140.60349 167.71564,142.74269 C 167.23697,144.88188 166.11753,150.13264 165.24235,154.41103 C 163.31506,163.83271 162.1165,168.02409 161.32427,168.02409 C 160.99742,168.02409 152.14703,159.64764 141.66039,149.40336 L 122.6087,130.78264 L 121.31084,133.69972 C 120.60785,135.30877 119.76977,138.16407 119.44976,140.04439 C 119.12973,141.92469 118.56632,144.00488 118.20086,144.66311 C 117.83541,145.32132 116.45835,149.87983 115.11538,154.79998 C 113.77238,159.72013 112.18227,165.49595 111.58909,167.63516 C 110.99593,169.77435 109.90938,173.88743 109.16478,176.77535 C 107.56178,182.99248 106.45391,183.38371 102.65097,179.10902 C 99.123671,175.14417 89.098267,163.96337 88.129573,162.9192 C 87.698586,162.45462 85.40651,159.8868 83.036066,157.20658 C 80.665626,154.52634 78.020927,151.5626 77.158938,150.61882 C 76.296962,149.67504 73.299621,146.32066 70.498198,143.18025 C 67.696769,140.03985 65.00624,137.09107 64.547609,136.61682 C 64.088969,136.14255 62.061365,133.8939 60.041808,131.63345 C 56.03593,127.14978 55.493412,127.65472 58.009308,133.50526 C 58.906608,135.59188 60.182476,138.52264 60.82543,140.02008 C 61.468383,141.51751 62.465905,143.79284 63.05384,145.07636 C 64.06033,147.27364 65.351916,150.21968 68.490181,157.52258 C 69.225598,159.23394 70.302077,161.68429 70.890005,162.96781 C 71.826593,165.01248 73.892514,169.71192 76.008007,174.63616 C 79.903917,183.70468 81.197596,185.92423 84.6033,189.17296 C 89.173099,193.53216 96.337696,197.0481 103.80191,198.62918 C 115.18476,201.04034 131.39584,199.88788 144.20715,195.7364 C 157.29397,191.49566 165.46676,186.69556 173.54379,178.52559 C 180.06175,171.93263 180.35267,171.56976 182.53089,167.17327 C 185.14474,161.89756 185.59881,157.19177 184.46545,147.11832 C 183.90615,142.1472 183.06007,134.57484 182.57987,130.29646 C 182.09966,126.01806 181.20014,119.19209 180.59634,115.12762 C 179.99255,111.06315 179.27146,105.02478 178.98013,101.70902 C 178.63453,97.775686 178.13294,95.723494 177.65778,95.777622 z M 27.30133,98.743315 C 15.651302,98.715908 1.5335704,99.114276 0.9032383,99.73999 C -0.32516525,100.95943 -0.29264739,104.4424 0.9522133,105.74432 C 1.7398525,106.56804 6.1284775,106.66894 23.43222,106.25482 C 35.267969,105.97156 45.099612,105.57867 45.27553,105.404 C 45.451469,105.22935 45.381141,103.90415 45.104123,102.4383 C 44.688301,100.23798 44.172537,99.676572 42.165559,99.278119 C 40.392955,98.926186 34.291352,98.759772 27.30133,98.743315 z M 298.8245,183.6548 C 298.01103,183.66044 296.69052,184.03708 294.61256,184.65148 L 291.08629,185.69677 L 290.54755,190.68012 C 290.17312,194.28246 287.90781,214.32013 287.58451,216.83666 C 287.57076,216.94361 287.11924,217.04026 286.58049,217.03112 C 286.04176,217.02199 284.53103,215.53429 283.25012,213.72509 C 281.96922,211.91591 280.65526,210.06901 280.31156,209.64118 C 279.96788,209.21333 276.8549,205.10024 273.40594,200.50097 C 269.95697,195.9017 266.88759,192.15057 266.57378,192.16297 C 266.25995,192.17539 262.30797,193.22821 257.78258,194.49664 C 253.2572,195.76506 249.16708,196.80332 248.69752,196.806 C 247.53982,196.81258 246.38036,194.12165 245.26921,188.80832 C 244.24955,183.93261 244.01055,183.8045 238.58397,185.42937 C 235.62305,186.31595 235.4632,186.50407 235.71888,189.05142 C 235.86774,190.53456 236.25931,192.09977 236.60045,192.5276 C 236.94159,192.95545 237.46127,194.74212 237.75138,196.48998 L 238.26563,199.67447 L 233.12315,201.06008 C 229.17115,202.12201 228.00516,202.76128 228.00515,203.85562 C 228.00515,204.63854 228.35779,205.4873 228.78876,205.75173 C 229.21975,206.01615 229.57239,207.10055 229.57238,208.15832 C 229.57238,210.8131 231.08624,211.15785 236.25761,209.66549 C 238.69741,208.9614 240.77764,208.4879 240.86136,208.62019 C 241.46548,209.57471 243.67749,217.87971 243.67748,219.19462 C 243.67748,220.09441 243.956,221.01685 244.31417,221.23658 C 244.67233,221.45632 245.4517,224.10995 246.02833,227.14369 C 246.60497,230.17741 247.35984,232.85535 247.71801,233.07509 C 248.07618,233.29483 248.37919,234.2581 248.37918,235.23859 C 248.37918,236.2191 248.76311,238.14532 249.23627,239.49268 C 250.20707,242.25718 250.25619,242.2687 255.13788,241.04846 L 258.68865,240.14902 L 258.17439,236.64852 C 257.88323,234.72109 257.32764,232.59409 256.94998,231.90826 C 256.57233,231.22242 255.91046,229.06896 255.48071,227.14369 C 254.44207,222.4908 252.50995,215.19614 251.07287,210.49199 C 250.4319,208.39386 250.07107,206.52741 250.26476,206.33515 C 250.45845,206.14288 253.47382,205.19401 256.94998,204.22025 L 263.2679,202.4457 L 265.42284,204.99815 C 266.60707,206.40089 268.812,209.33959 270.32045,211.53727 C 271.82891,213.73497 273.59206,216.20643 274.23853,217.00682 C 274.88501,217.8072 275.94291,219.21898 276.58938,220.16699 C 277.23587,221.115 278.11744,222.28568 278.54842,222.76806 C 278.97941,223.25043 280.38993,225.21841 281.68289,227.14369 C 284.32405,231.07647 285.61602,232.58891 286.38459,232.58891 C 286.67228,232.58891 288.74662,232.06901 290.98834,231.42208 L 295.07784,230.25524 L 296.47366,218.78137 C 297.2405,212.47591 298.20131,203.63197 298.6286,199.13967 C 299.05588,194.64736 299.60079,189.3091 299.82851,187.27685 C 300.12204,184.65738 300.18029,183.64543 298.8245,183.6548 z M 200.43164,195.76071 C 200.08647,195.76893 199.69531,195.85878 199.23172,196.0038 C 198.02956,196.37987 196.10423,196.89569 194.94632,197.14633 C 193.01019,197.56542 192.87262,197.82051 193.28114,200.50097 C 193.52544,202.10403 194.03273,203.76518 194.40758,204.17164 C 194.78244,204.57809 195.09325,205.52985 195.09324,206.28652 C 195.09324,207.0432 195.53404,207.51117 196.07276,207.33181 C 196.61151,207.15244 198.56639,206.61509 200.43164,206.14067 L 203.83547,205.28986 L 203.27225,202.00814 C 202.45595,197.17841 201.92734,195.72509 200.43164,195.76071 z M 204.93743,208.71743 C 204.87141,208.63054 202.97249,209.08453 200.7255,209.73841 C 197.07763,210.79994 196.66049,211.15305 196.66049,213.06875 C 196.66049,214.24878 196.92525,215.49509 197.2482,215.81567 C 197.57114,216.13626 198.28147,218.19928 198.83991,220.41008 C 200.75124,227.97663 202.05471,232.98138 203.73752,239.20097 C 204.66359,242.62368 205.59752,246.38906 205.819,247.56328 C 206.41962,250.74772 203.42714,256.47852 200.13779,258.40512 C 198.33189,259.46282 197.50293,260.43736 197.73796,261.27358 C 197.93435,261.97235 198.34567,263.76284 198.64401,265.26027 C 198.94236,266.75771 199.33534,268.24542 199.52558,268.5663 C 199.71584,268.88717 200.13495,269.14972 200.45613,269.14971 C 201.78803,269.14971 208.23537,264.54558 209.81055,262.46473 C 210.74515,261.23006 211.83811,259.82853 212.23487,259.35317 C 213.24819,258.13903 215.33388,249.76892 215.09996,247.83069 C 214.71198,244.61595 213.00345,236.82935 212.3573,235.31152 C 211.99305,234.45585 210.92191,230.6053 209.98196,226.75474 C 208.49271,220.65378 205.28201,209.17098 204.93743,208.71743 z M 130.29795,214.2842 C 130.24719,214.28809 130.20213,214.28905 130.15102,214.30851 C 129.54678,214.53868 127.54878,215.11514 125.71868,215.57257 C 122.47077,216.38444 122.42614,216.45282 123.04949,218.85431 C 123.40072,220.20746 124.07408,222.88474 124.56775,224.81001 C 125.0614,226.7353 125.76587,229.01062 126.13498,229.8663 C 126.50408,230.72197 127.05167,232.64726 127.33489,234.1447 C 127.61811,235.64212 128.29294,238.44253 128.85315,240.36781 C 129.41335,242.29308 130.4891,246.14364 131.22848,248.92459 C 134.05457,259.55381 137.23957,270.85396 137.64435,271.65355 C 137.79733,271.95575 138.3683,272.07073 138.89324,271.89663 C 139.41817,271.72254 141.28015,271.20466 143.05621,270.7541 L 146.28862,269.9276 L 144.79486,263.89895 C 143.97169,260.58483 142.81985,256.12006 142.22361,253.98087 C 138.76333,241.56614 137.81747,238.03905 137.05664,234.53363 C 136.59234,232.39444 135.92049,229.94408 135.56287,229.08841 C 135.20525,228.23272 134.09702,224.47823 133.08958,220.7261 C 131.81118,215.96481 131.05912,214.22587 130.29795,214.2842 z M 165.31581,219.41341 C 162.8365,219.45462 160.30324,219.88115 157.92044,220.7261 C 150.0075,223.53202 143.37455,233.20572 143.37455,241.89928 C 143.37455,249.74411 148.72889,258.08507 156.15729,261.75976 C 161.23817,264.27313 167.19424,264.33672 176.48235,261.97855 C 181.46534,260.71338 183.24144,259.94419 182.9472,259.18301 C 182.72411,258.60591 182.31667,256.73677 182.04113,255.02615 C 181.76558,253.31555 181.09735,251.73517 180.54737,251.52566 C 179.99738,251.31615 176.92736,251.87749 173.73969,252.76542 C 166.54642,254.7691 163.7038,254.79892 159.92845,252.88696 C 153.6197,249.69199 153.80476,249.56267 170.99704,245.05945 C 179.71569,242.77575 187.06434,240.79291 187.33054,240.65952 C 188.13284,240.25747 186.44544,232.5259 185.07765,230.35248 C 182.94257,226.95986 178.45704,223.13693 174.32741,221.21228 C 171.63168,219.9559 168.50349,219.36042 165.31581,219.41341 z M 165.46275,229.0641 C 167.94541,229.00622 170.46159,229.62511 172.63773,230.96021 C 174.24939,231.94897 175.4353,233.13038 175.28244,233.58558 C 174.9171,234.67358 153.62567,240.34299 153.0963,239.49268 C 152.26174,238.15222 155.33233,233.43329 158.43468,231.30053 C 160.52133,229.86604 162.98008,229.12198 165.46275,229.0641 z M 106.10378,235.06843 C 98.871596,235.2002 91.665982,238.93001 87.272493,246.37214 C 84.253955,251.48524 83.770601,259.18342 85.999118,266.54864 C 86.884911,269.47623 87.85207,273.27253 88.154063,274.98388 C 88.456053,276.69524 88.978944,278.44549 89.304999,278.87332 C 89.631061,279.30117 90.167477,281.22645 90.480428,283.15172 C 90.793378,285.077 91.295824,287.00228 91.606873,287.43011 C 91.917923,287.85795 92.609456,290.26238 93.149617,292.75379 C 93.846992,295.97028 94.436025,297.17057 95.182123,296.88632 C 95.760033,296.66619 97.526748,296.23131 99.10021,295.93828 C 100.67369,295.64524 102.14206,294.90493 102.3816,294.28526 C 102.62117,293.66551 102.2145,291.10005 101.45105,288.59695 C 100.68762,286.09393 100.235,283.54482 100.47154,282.93294 C 100.7182,282.29484 103.8708,281.09789 107.84243,280.11309 C 111.65102,279.16865 116.25734,277.52132 118.07842,276.46674 C 121.70922,274.36417 126.91861,268.20084 126.9186,265.98954 C 126.9186,265.22067 127.27124,264.35785 127.70222,264.09343 C 128.1332,263.82902 128.48584,260.89574 128.48583,257.57861 C 128.48583,253.09315 128.06272,250.71959 126.86962,248.26825 C 122.54765,239.38817 114.30027,234.9191 106.10378,235.06843 z M 25.048437,242.28822 C 24.977862,242.28231 24.897023,242.28959 24.828045,242.31253 C 24.293691,242.49022 22.374334,243.01392 20.542641,243.47937 C 17.057809,244.36488 16.32282,245.837 17.946902,248.75442 C 18.360473,249.49734 19.024534,251.75087 19.416184,253.76209 L 20.126337,257.40844 L 16.57558,258.62389 C 14.616109,259.28668 12.313995,259.81503 11.482063,259.81503 C 10.310456,259.81503 10.076745,260.2096 10.404592,261.56529 C 10.637381,262.52793 11.066734,264.62824 11.359631,266.23262 C 11.652516,267.83702 12.132313,269.14972 12.437102,269.14971 C 12.741902,269.14971 14.862409,268.60533 17.138798,267.93425 C 19.415188,267.26317 21.728927,266.89735 22.28128,267.10775 C 22.833634,267.31817 23.717487,269.35025 24.240334,271.62924 C 24.763159,273.90822 25.50267,276.81193 25.881023,278.09545 C 26.259377,279.37896 27.296873,283.05449 28.182902,286.26328 C 29.06893,289.47207 30.332262,293.97478 30.999023,296.2543 C 31.927148,299.4273 32.491598,300.27992 33.423334,299.92496 C 34.092698,299.67004 36.167573,299.07705 38.02708,298.61228 C 40.837844,297.90969 41.28118,297.56162 40.671794,296.49738 C 40.268626,295.79331 39.426162,293.10871 38.810701,290.54166 C 38.19523,287.97464 37.113805,283.77404 36.410873,281.20699 C 35.70793,278.63996 34.804716,274.96444 34.378373,273.03916 C 33.95203,271.11389 33.249205,268.94455 32.835623,268.20166 C 31.072598,265.03464 31.874316,263.9981 37.218976,262.56196 C 42.343373,261.18501 42.348966,261.1716 41.871698,258.74545 C 41.215962,255.41201 39.849034,252.81403 38.737234,252.81403 C 38.227898,252.81403 36.778844,253.15083 35.529302,253.54331 C 30.516773,255.11771 28.966512,255.22671 28.966512,254.02949 C 28.966512,253.39453 28.463755,251.36559 27.864559,249.53232 C 27.265341,247.69905 26.564487,245.27284 26.297316,244.11139 C 26.05587,243.06176 25.542409,242.32955 25.048437,242.28822 z M 72.775582,243.77107 C 72.460098,243.79779 72.103407,243.85906 71.722602,243.94123 C 65.885441,245.20086 65.841977,245.25367 66.996412,249.84834 C 68.143684,254.41451 69.53841,259.54622 71.991966,268.37181 C 72.884025,271.58061 74.019185,276.13128 74.514234,278.48439 C 75.009284,280.8375 75.711224,283.1099 76.081468,283.51635 C 76.451715,283.92281 76.767138,285.06046 76.767134,286.04449 C 76.767134,288.10326 77.603246,288.22722 82.619772,286.89531 C 85.089806,286.23955 86.170537,285.55189 86.170533,284.61026 C 86.170533,283.86863 85.841643,283.06961 85.460376,282.8357 C 85.079118,282.60179 84.51705,280.7407 84.211491,278.70316 C 83.905937,276.66565 83.394422,274.63383 83.060556,274.20599 C 82.726685,273.77815 82.013396,270.97776 81.468833,267.98287 C 80.924274,264.98801 80.18827,262.18761 79.852621,261.75976 C 79.516984,261.33193 78.987454,259.58167 78.677196,257.87031 C 78.366934,256.15895 77.836237,254.40871 77.501771,253.98087 C 77.167309,253.55302 76.661036,251.45272 76.350836,249.31353 C 75.706667,244.87111 74.98395,243.58402 72.775582,243.77107 z M 105.90788,244.69481 C 106.20138,244.68064 106.49614,244.68813 106.78944,244.69481 C 110.70006,244.78387 114.54753,246.70116 117.24583,250.21296 C 119.04211,252.5508 119.42527,253.83969 119.42526,257.48137 C 119.42526,260.64177 119.04863,262.27951 118.07842,263.24262 C 117.33138,263.98425 116.73158,264.89786 116.73158,265.26027 C 116.73158,265.6226 115.48784,266.67432 113.98893,267.59394 C 112.49001,268.51355 108.25229,270.0673 104.56104,271.04582 L 97.851321,272.82037 L 96.994239,271.24029 C 95.602761,268.65926 94.058023,261.27022 94.031187,257.09242 C 94.000705,252.34684 95.833051,249.08188 99.932797,246.5666 C 101.80677,245.4169 103.85334,244.79398 105.90788,244.69481 z M 60.605037,246.78539 L 57.54403,248.26825 C 47.107341,253.30764 42.987848,264.49335 46.989698,276.92861 C 47.851673,279.60711 48.556919,282.62496 48.55693,283.61359 C 48.55693,284.60221 48.909558,285.60993 49.340551,285.87433 C 49.771533,286.13874 50.121773,286.94975 50.124162,287.6732 C 50.126562,288.39672 50.497148,290.33283 50.956758,291.9759 C 51.707873,294.66109 52.00498,294.92631 53.797362,294.47973 C 54.894119,294.20654 56.826108,293.76175 58.107258,293.50737 C 59.982858,293.135 60.371744,292.73656 60.066301,291.4168 C 58.269944,283.65432 56.921015,278.674 56.344115,277.58494 C 54.785487,274.64266 53.85029,266.19979 54.776894,263.41278 C 55.742412,260.5086 60.355137,255.9256 62.319205,255.9256 C 63.25723,255.9256 63.381922,255.33583 62.95589,253.08144 C 62.660208,251.51684 62.034344,249.46566 61.535583,248.51133 L 60.605037,246.78539 z "
       id="path5402" />
  </g>
</svg>
